<svg width="16" height="16" viewBox="0 0 16 16" fill="none" xmlns="http://www.w3.org/2000/svg">
<path d="M11.31 10.498C11.1515 10.3392 10.9364 10.25 10.7121 10.25H10.4732C10.4078 10.25 10.345 10.2246 10.2979 10.1793C10.2016 10.0864 10.1949 9.93478 10.2779 9.82974C11.0442 8.85936 11.5 7.63614 11.5 6.3125C11.5 3.17125 8.95375 0.625 5.8125 0.625C2.67125 0.625 0.125 3.17125 0.125 6.3125C0.125 9.45375 2.67125 12 5.8125 12C7.13614 12 8.35936 11.5442 9.32974 10.7779C9.43478 10.6949 9.58636 10.7016 9.67927 10.7979C9.72464 10.845 9.75 10.9078 9.75 10.9732V11.2121C9.75 11.4364 9.83922 11.6515 9.99798 11.81L13.4725 15.2775C13.833 15.6373 14.4167 15.637 14.7769 15.2769C15.137 14.9167 15.1373 14.333 14.7775 13.9725L11.31 10.498ZM5.8125 10.25C3.63375 10.25 1.875 8.49125 1.875 6.3125C1.875 4.13375 3.63375 2.375 5.8125 2.375C7.99125 2.375 9.75 4.13375 9.75 6.3125C9.75 8.49125 7.99125 10.25 5.8125 10.25Z" fill="#B2B2B2"/>
</svg>