<svg width="27" height="19" viewBox="0 0 27 19" fill="none" xmlns="http://www.w3.org/2000/svg">
<path d="M0.375 16.7917C0.375 17.5971 1.02792 18.25 1.83333 18.25H25.1667C25.9721 18.25 26.625 17.5971 26.625 16.7917C26.625 15.9863 25.9721 15.3333 25.1667 15.3333H1.83333C1.02792 15.3333 0.375 15.9863 0.375 16.7917ZM0.375 9.5C0.375 10.3054 1.02792 10.9583 1.83333 10.9583H25.1667C25.9721 10.9583 26.625 10.3054 26.625 9.5C26.625 8.69459 25.9721 8.04167 25.1667 8.04167H1.83333C1.02792 8.04167 0.375 8.69459 0.375 9.5ZM1.83333 0.75C1.02792 0.75 0.375 1.40292 0.375 2.20833C0.375 3.01375 1.02792 3.66667 1.83333 3.66667H25.1667C25.9721 3.66667 26.625 3.01375 26.625 2.20833C26.625 1.40292 25.9721 0.75 25.1667 0.75H1.83333Z" fill="white"/>
</svg>
