<svg width="38" height="24" viewBox="0 0 38 24" fill="none" xmlns="http://www.w3.org/2000/svg">
<path d="M25.667 10.334C28.4337 10.334 30.6503 8.10065 30.6503 5.33398C30.6503 2.56732 28.4337 0.333984 25.667 0.333984C22.9003 0.333984 20.667 2.56732 20.667 5.33398C20.667 8.10065 22.9003 10.334 25.667 10.334ZM12.3337 10.334C15.1003 10.334 17.317 8.10065 17.317 5.33398C17.317 2.56732 15.1003 0.333984 12.3337 0.333984C9.56699 0.333984 7.33366 2.56732 7.33366 5.33398C7.33366 8.10065 9.56699 10.334 12.3337 10.334ZM12.3337 13.6673C8.45033 13.6673 0.666992 15.6173 0.666992 19.5007V23.6673H24.0003V19.5007C24.0003 15.6173 16.217 13.6673 12.3337 13.6673ZM25.667 13.6673C25.1837 13.6673 24.6337 13.7007 24.0503 13.7507C25.9837 15.1507 27.3337 17.034 27.3337 19.5007V23.6673H37.3337V19.5007C37.3337 15.6173 29.5503 13.6673 25.667 13.6673Z" fill="white"/>
</svg>