<svg width="17" height="16" viewBox="0 0 17 16" fill="none" xmlns="http://www.w3.org/2000/svg">
<path d="M16.3089 8.17643C16.3089 8.70571 15.8799 9.13477 15.3506 9.13477H10.8543C10.1619 9.13477 9.60059 9.69608 9.60059 10.3885V14.8848C9.60059 15.414 9.17153 15.8431 8.64225 15.8431V15.8431C8.11298 15.8431 7.68392 15.414 7.68392 14.8848V10.3885C7.68392 9.69608 7.1226 9.13477 6.43019 9.13477H1.93392C1.40465 9.13477 0.975586 8.70571 0.975586 8.17643V8.17643C0.975586 7.64716 1.40465 7.2181 1.93392 7.2181H6.43019C7.1226 7.2181 7.68392 6.65678 7.68392 5.96437V1.4681C7.68392 0.938827 8.11298 0.509766 8.64225 0.509766V0.509766C9.17153 0.509766 9.60059 0.938826 9.60059 1.4681V5.96437C9.60059 6.65678 10.1619 7.2181 10.8543 7.2181H15.3506C15.8799 7.2181 16.3089 7.64716 16.3089 8.17643V8.17643Z" fill="white"/>
</svg>
